<?xml version="1.0" encoding="UTF-8"?>
<svg id="Layer_2" data-name="Layer 2" xmlns="http://www.w3.org/2000/svg" viewBox="0 0 150 150">
  <g>
    <path d="m33.48,80.45l81.19-35.89s15.74-3.09,21.92,4.63c6.17,7.72-16.05,18.21-16.05,18.21l-18.21,8.34-19.76,41.98s-2.47,10.19-16.05,11.42l4.32-39.21s-25.01,11.11-30.56,11.73c-5.56.62-16.67,6.79-23.46-8.03-6.79-14.82-8.03-20.68-8.03-20.68l11.73-2.78,12.97,10.27Z"/>
    <path d="m48.91,66.79l22.54-9.88s-27.78-10.5-33.96-7.72c-6.17,2.78-7.1,4.63-7.1,4.63l18.52,12.97Z"/>
  </g>
  <path d="m75,0C33.58,0,0,33.58,0,75s33.58,75,75,75,75-33.58,75-75S116.42,0,75,0Zm0,144.11c-38.16,0-69.1-30.94-69.1-69.11S36.84,5.9,75,5.9s69.1,30.94,69.1,69.1-30.93,69.11-69.1,69.11Z"/>
</svg>