<?xml version="1.0" encoding="UTF-8"?>
<svg id="Layer_2" data-name="Layer 2" xmlns="http://www.w3.org/2000/svg" viewBox="0 0 150 150">
  <g>
    <path d="m59.52,30.15v40.66h29.98V30.15h-29.98Zm-20.81,0c-5.13,0-9.28,4.16-9.28,9.28v22.1c0,5.12,4.15,9.28,9.28,9.28h9.09V30.15h-9.09Zm20.81,0v40.66h29.98V30.15h-29.98Zm51.77,0h-10.07v40.66h10.07c5.12,0,9.28-4.16,9.28-9.28v-22.1c0-5.12-4.16-9.28-9.28-9.28Z"/>
    <path d="m113.69,72.99v40.21c0,5.13-4.16,9.28-9.28,9.28h-58.82c-5.12,0-9.28-4.15-9.28-9.28v-40.21h11.5v7.6c-2.91,1.91-4.83,5.2-4.83,8.93,0,5.91,4.78,10.68,10.68,10.68s10.68-4.77,10.68-10.68c0-3.73-1.91-7.01-4.82-8.92v-7.61h29.98v7.53c-2.97,1.9-4.93,5.22-4.93,9,0,5.91,4.78,10.68,10.68,10.68s10.68-4.77,10.68-10.68c0-3.69-1.87-6.94-4.71-8.86v-7.67h12.46Z"/>
    <g>
      <path d="m33.12,115.19v-37.78h-1.88c-5.13,0-9.28,4.16-9.28,9.28v22.09c0,5.13,4.16,9.28,9.28,9.28h2.28c-.25-.92-.39-1.88-.39-2.88Z"/>
      <path d="m118.76,77.41h-1.88v37.78c0,1-.14,1.96-.39,2.88h2.28c5.13,0,9.28-4.16,9.28-9.28v-22.09c0-5.13-4.16-9.28-9.28-9.28Z"/>
    </g>
    <path d="m102.75,89.52c0,4.15-3.36,7.5-7.5,7.5s-7.5-3.35-7.5-7.5c0-1.84.66-3.51,1.75-4.81.81-.98,1.87-1.73,3.07-2.17V30.15h1.57v-2.36c0-5.12-4.16-9.28-9.28-9.28h-20.64c-5.13,0-9.29,4.16-9.29,9.28v2.36h1.42v52.38c1.26.47,2.36,1.27,3.18,2.31,1.02,1.27,1.63,2.9,1.63,4.67,0,4.15-3.36,7.5-7.5,7.5s-7.5-3.35-7.5-7.5c0-1.77.62-3.41,1.64-4.68.83-1.03,1.92-1.84,3.18-2.3V30.15h.75v-5.54c0-5.12,4.16-9.28,9.29-9.28h27.01c5.12,0,9.28,4.16,9.28,9.28v5.54h.6v52.38c1.33.49,2.47,1.36,3.3,2.46.97,1.25,1.53,2.82,1.53,4.52Z"/>
  </g>
  <path d="m75,0C33.58,0,0,33.58,0,75s33.58,75,75,75,75-33.58,75-75S116.42,0,75,0Zm0,144.11c-38.16,0-69.1-30.94-69.1-69.11S36.84,5.9,75,5.9s69.1,30.94,69.1,69.1-30.93,69.11-69.1,69.11Z"/>
</svg>