<?xml version="1.0" encoding="UTF-8"?>
<svg id="Layer_2" data-name="Layer 2" xmlns="http://www.w3.org/2000/svg" viewBox="0 0 150 150">
  <path d="m127.5,47.67h-1.62v-6.49s-3.69-.86-8.57-1.67l-.04-5.18s-12.89-1.61-24.98,2.53c-11.4,3.91-17.07,8.8-17.67,9.33h0s-.04.02-.04.02-.03,0-.04-.02h0c-.6-.54-6.27-5.42-17.67-9.33-12.08-4.14-24.98-2.53-24.98-2.53l-.04,5.18c-4.88.81-8.57,1.67-8.57,1.67v6.49h-1.62c-1.82,0-3.3,1.48-3.3,3.3v54.82c0,1.82,1.47,3.3,3.3,3.3h43.51v.15c0,1.82,1.48,3.3,3.3,3.3h12.57c1.82,0,3.3-1.48,3.3-3.3v-.15h43.19c1.82,0,3.3-1.48,3.3-3.3v-54.82c0-1.82-1.47-3.3-3.3-3.3Zm-58.4,58.28s-1.55-.43-3.95-1c-5.01-1.19-13.71-3.02-19.77-2.92-8.94.15-19.48.78-19.48.78v-59.21s2.44-.59,5.91-1.23l-.04,5.31-.34,50.01s13.6-.93,23.09,1.1c3.6.77,7.35,2.44,10.63,4.21,1.44.78,2.78,1.59,3.98,2.34l-.04.62Zm2.83.49s-.13-.11-.39-.32c-.45-.35-1.27-.99-2.36-1.77-1.1-.79-2.48-1.74-4.03-2.69-3.18-1.96-7.09-3.96-10.81-4.8-8.33-1.89-20.26-1.02-20.26-1.02l.32-48.17.04-5.76.02-2.81.02-2.15s11.31-1.49,21.91,2.35c1.45.53,2.81,1.08,4.05,1.63,6.35,2.82,9.98,5.75,11.11,6.74.26.23.39.35.39.35v58.42Zm5.68-.32c-.26.2-.39.32-.39.32v-58.42s.05-.05.16-.15c.05-.05.13-.12.23-.2,1.13-1,4.76-3.92,11.11-6.74,1.24-.56,2.6-1.1,4.05-1.63,10.6-3.84,21.91-2.35,21.91-2.35l.02,2.15.02,2.81.04,5.76.32,48.17s-11.93-.86-20.26,1.02c-3.6.82-7.37,2.71-10.5,4.61-1.67,1.02-3.16,2.04-4.34,2.88-1.09.78-1.91,1.42-2.36,1.77Zm45.63-3.31s-10.53-.63-19.48-.78c-5.93-.11-14.4,1.65-19.45,2.85-2.58.61-4.27,1.08-4.27,1.08l-.04-.62c1.29-.81,2.74-1.67,4.3-2.5,3.2-1.72,6.83-3.3,10.31-4.05,9.49-2.03,23.09-1.1,23.09-1.1l-.34-50.01-.04-5.31c3.47.64,5.91,1.23,5.91,1.23v59.21Z"/>
  <path d="m75,0C33.58,0,0,33.58,0,75s33.58,75,75,75,75-33.58,75-75S116.42,0,75,0Zm-.11,143.99c-38.16,0-69.1-30.93-69.1-69.1S36.73,5.79,74.89,5.79s69.11,30.94,69.11,69.1-30.94,69.1-69.11,69.1Z"/>
</svg>