<?xml version="1.0" encoding="UTF-8"?>
<svg id="Layer_2" data-name="Layer 2" xmlns="http://www.w3.org/2000/svg" viewBox="0 0 150 150">
  <g>
    <path d="m70.3,108.84s41.99-10.09,41.99-4.24-.49,7.34-37.29,13.73-41.65,7.87-42.66,2.83.22-6.27,37.95-12.32Z"/>
    <path d="m59.33,106.01l-22.27,3.03s-.47-7.81,7.27-7.2,15.01,4.17,15.01,4.17Z"/>
    <path d="m86.5,120.96l22.13-3.97s.8,7.78-6.96,7.5c-7.76-.28-15.17-3.53-15.17-3.53Z"/>
    <path d="m87.7,30.82s-.05-.01-.05-.01c0,0,.02-.02.05.01Z"/>
    <path d="m98.86,57.48c-.19-7.16,2.73-4.06,3.04-13.34.29-9.01-13.36-13.07-14.19-13.31.1.16.27,1.11-.05,6.75-.4,7.26-5.75,8.08-5.75,8.08,0,0,1.62-1.72,1.31-16.15-.29-14.43-23.89-16.36-23.89-16.36,0,0,4.92,4.75,4.81,13.42-.1,8.69-7.98,24.03-10.69,17.57-2.73-6.46-10-4.24-10-4.24,0,0,2.83,1.01,3.14,8.68.29,7.67-10.91,8.47-9.53,29.07,1.37,20.59,39.6,24.16,39.6,24.16,15.15-.17,31.7-6.8,32.4-22.04.71-15.24-9.99-15.13-10.2-22.28Zm-23.86,41.17c-6.12.29-18.03-5.05-18.23-17.86-.2-12.82,13.42-15.95,13.63-20.7.19-4.75.29-7.17.29-7.17,0,0,4.26,1.01,4.3,9.39.03,8.37-4.91,17.46.95,17.46s6.36-4.76,6.36-4.76v-4.72s2.83,2.42,2.92,6.46c.1,4.04-1.4,6.16-1.4,6.16,0,0,2.02-.31,2.53-1.42.5-1.11.91-2.83.91-2.83,0,0,1.31,1.01,1.61,7.68.31,6.66-5.54,11.91-13.87,12.31Z"/>
  </g>
  <path d="m75,0C33.58,0,0,33.58,0,75s33.58,75,75,75,75-33.58,75-75S116.42,0,75,0Zm0,144.11c-38.16,0-69.1-30.94-69.1-69.11S36.84,5.9,75,5.9s69.1,30.94,69.1,69.1-30.93,69.11-69.1,69.11Z"/>
</svg>