<?xml version="1.0" encoding="UTF-8"?>
<svg id="Layer_2" data-name="Layer 2" xmlns="http://www.w3.org/2000/svg" viewBox="0 0 150 150">
  <g>
    <g>
      <path d="m102.06,128c-1.2,3.53-9.39,4.32-19.29.11-9.9-4.2-16.76-11.3-19.26-12.13s-20.74-.56-28.56-4.86c-7.82-4.3-12.38-12.98-13.58-23.08,0,0,64.42,27.18,70.22,29.59s12.04,5.74,10.47,10.36Z"/>
      <path d="m131.86,103.45l-12,5.72c-20.92,10.68-27.34,3.65-27.34,3.65,0,0-38.36,22.04-46.33,16.72h0c-.17-.11-.33-.25-.48-.39h0c-.07-.17-.11-.33-.13-.5-1.28-8.33,42.16-22.91,42.16-22.91,0,0-3.83-8.19,18.46-16.85l12.35-5.19s2.64,2.01,5.4,5.01l-19.24,8c-.77.33-1.22.96-1.22,1.63,0,.27.08.56.24.82.56.89,1.91,1.25,3.01.79l19.74-8.2c.18.24.36.5.53.75.05.07.08.14.09.22.09.06.16.12.21.2.4.61.77,1.22,1.1,1.83l-19.79,8.23c-.77.32-1.22.96-1.22,1.63,0,.27.08.56.24.82.56.9,1.91,1.26,3.01.8l19.42-8.08c1.27,3,1.8,5.32,1.8,5.32Z"/>
    </g>
    <g>
      <path d="m91.9,22.6c-1.76,0-3.45.27-5.05.77-3.02-4.48-8.14-7.42-13.94-7.42s-11.2,3.1-14.18,7.79c-1.88-.74-3.92-1.14-6.06-1.14-9.29,0-16.81,7.52-16.81,16.81,0,7.35,4.71,13.6,11.29,15.88v32.97h49.91v-32.86c6.75-2.18,11.64-8.52,11.64-15.99,0-9.29-7.53-16.81-16.81-16.81Zm2.83,63.33h-45.24v-11.02h45.24v11.02Zm2.33-33c-.75.29-1.52.51-2.33.67v18.97h-45.24v-19.05c-.81-.17-1.59-.42-2.33-.73-5.26-2.17-8.96-7.34-8.96-13.38,0-8,6.48-14.48,14.48-14.48,1.73,0,3.4.3,4.94.87.74.26,1.45.58,2.12.96.33-.71.7-1.38,1.14-2.03,2.59-3.89,7.02-6.46,12.05-6.46s9.09,2.36,11.71,5.97c.47.63.87,1.31,1.22,2.01.71-.33,1.45-.6,2.21-.81,1.23-.34,2.52-.52,3.85-.52,8,0,14.48,6.48,14.48,14.48,0,6.17-3.87,11.44-9.31,13.52Z"/>
      <rect x="60.31" y="55.3" width="2.33" height="7.75" rx=".95" ry=".95"/>
      <rect x="71.18" y="56.03" width="2.33" height="7.75" rx=".95" ry=".95"/>
      <rect x="82.15" y="55.13" width="2.33" height="7.75" rx=".95" ry=".95"/>
    </g>
  </g>
  <path d="m75,0C33.58,0,0,33.58,0,75s33.58,75,75,75,75-33.58,75-75S116.42,0,75,0Zm0,144.1c-38.16,0-69.1-30.94-69.1-69.1S36.84,5.9,75,5.9s69.1,30.94,69.1,69.1-30.93,69.1-69.1,69.1Z"/>
</svg>