<?xml version="1.0" encoding="UTF-8"?>
<svg id="Layer_2" data-name="Layer 2" xmlns="http://www.w3.org/2000/svg" viewBox="0 0 150 150">
  <g>
    <path d="m102.27,96.59c1.45-.25,2.93-.61,4.4-1.12,10.02-3.43,16.23-11.82,13.86-18.73-1.17-3.39-4.19-5.81-8.16-6.97.42-2.9.66-5.87.7-8.92H33.5c.33,20.04,8.73,37.37,20.96,46.3h-18.27c.67,7,10.76,10.36,10.76,10.36h50.07s10.09-3.36,10.76-10.36h-15.67c3.79-2.75,7.21-6.33,10.16-10.56Zm9.5-23.14c2.45.96,4.28,2.55,5.06,4.64,1.91,5.13-3.19,11.4-11.38,13.99-.15.05-.31.09-.45.13,3.09-5.52,5.42-11.86,6.77-18.76Z"/>
    <path d="m62.79,49.39c0,3.94-1.42,5-1.42,5h-2.27s1.42-1.06,1.42-5c0-1.64-.45-2.74-.99-3.77-.72-1.44-1.59-2.71-1.59-5.06,0-4.04,2.22-7.37,2.22-7.37h2.26s-2.22,3.33-2.22,7.37c0,2.35.88,3.62,1.6,5.06.53,1.03.99,2.13.99,3.77Z"/>
    <path d="m82.12,48.69c0,3.94-1.42,4.99-1.42,4.99h-2.27s1.42-1.05,1.42-4.99c0-1.65-.45-2.75-.98-3.78-.73-1.44-1.6-2.7-1.6-5.06,0-4.03,2.22-7.36,2.22-7.36h2.26s-2.22,3.33-2.22,7.36c0,2.36.88,3.62,1.6,5.06.53,1.03.99,2.13.99,3.78Z"/>
    <path d="m70.65,54.39h-2.26s-1.42-.76-1.42-3.62c0-1.18.45-1.98.99-2.72.72-1.04,1.59-1.96,1.59-3.67,0-2.91-2.22-5.32-2.22-5.32h2.27s2.22,2.41,2.22,5.32c0,1.71-.87,2.63-1.6,3.67-.53.74-.98,1.54-.98,2.72,0,2.86,1.41,3.62,1.41,3.62Z"/>
    <path d="m89.53,54.03h-2.27s-1.41-.76-1.41-3.61c0-1.19.45-1.98.98-2.73.73-1.04,1.6-1.96,1.6-3.66,0-2.92-2.22-5.33-2.22-5.33h2.27s2.22,2.41,2.22,5.33c0,1.7-.88,2.62-1.6,3.66-.53.75-.99,1.54-.99,2.73,0,2.85,1.42,3.61,1.42,3.61Z"/>
  </g>
  <path d="m59.53,45.62c-.72-1.44-1.59-2.71-1.59-5.06,0-4.04,2.22-7.37,2.22-7.37h2.26s-2.22,3.33-2.22,7.37c0,2.35.88,3.62,1.6,5.06.53,1.03.99,2.13.99,3.77,0,3.94-1.42,5-1.42,5h-2.27s1.42-1.06,1.42-5c0-1.64-.45-2.74-.99-3.77Z"/>
  <path d="m67.96,48.05c.72-1.04,1.59-1.96,1.59-3.67,0-2.91-2.22-5.32-2.22-5.32h2.27s2.22,2.41,2.22,5.32c0,1.71-.87,2.63-1.6,3.67-.53.74-.98,1.54-.98,2.72,0,2.86,1.41,3.62,1.41,3.62h-2.26s-1.42-.76-1.42-3.62c0-1.18.45-1.98.99-2.72Z"/>
  <path d="m78.87,44.91c-.73-1.44-1.6-2.7-1.6-5.06,0-4.03,2.22-7.36,2.22-7.36h2.26s-2.22,3.33-2.22,7.36c0,2.36.88,3.62,1.6,5.06.53,1.03.99,2.13.99,3.78,0,3.94-1.42,4.99-1.42,4.99h-2.27s1.42-1.05,1.42-4.99c0-1.65-.45-2.75-.98-3.78Z"/>
  <path d="m86.83,47.69c.73-1.04,1.6-1.96,1.6-3.66,0-2.92-2.22-5.33-2.22-5.33h2.27s2.22,2.41,2.22,5.33c0,1.7-.88,2.62-1.6,3.66-.53.75-.99,1.54-.99,2.73,0,2.85,1.42,3.61,1.42,3.61h-2.27s-1.41-.76-1.41-3.61c0-1.19.45-1.98.98-2.73Z"/>
  <path d="m102.27,96.59c1.45-.25,2.93-.61,4.4-1.12,10.02-3.43,16.23-11.82,13.86-18.73-1.17-3.39-4.19-5.81-8.16-6.97.42-2.9.66-5.87.7-8.92H33.5c.33,20.04,8.73,37.37,20.96,46.3h-18.27c.67,7,10.76,10.36,10.76,10.36h50.07s10.09-3.36,10.76-10.36h-15.67c3.79-2.75,7.21-6.33,10.16-10.56Zm9.5-23.14c2.45.96,4.28,2.55,5.06,4.64,1.91,5.13-3.19,11.4-11.38,13.99-.15.05-.31.09-.45.13,3.09-5.52,5.42-11.86,6.77-18.76Z"/>
  <path d="m75,0C33.58,0,0,33.58,0,75s33.58,75,75,75,75-33.58,75-75S116.42,0,75,0Zm0,144.1c-38.16,0-69.1-30.94-69.1-69.1S36.84,5.9,75,5.9s69.1,30.94,69.1,69.1-30.93,69.1-69.1,69.1Z"/>
</svg>