<?xml version="1.0" encoding="UTF-8"?>
<svg id="Layer_2" data-name="Layer 2" xmlns="http://www.w3.org/2000/svg" viewBox="0 0 150 150">
  <path d="m128.61,76.25H21.39c-4.08-.12-6.95-.84-2.52-10.44,4.45-9.61,38.56-51.38,56.13-51.85,17.58.47,51.7,42.24,56.13,51.85,4.44,9.6,1.56,10.32-2.52,10.44Z"/>
  <g>
    <path d="m75,0C33.58,0,0,33.58,0,75s33.58,75,75,75,75-33.58,75-75S116.42,0,75,0Zm0,144.1c-18.56,0-35.41-7.33-47.83-19.24h33.95s-4.41-35.17,13.88-35.17,13.97,35.17,13.97,35.17h33.86c-12.41,11.92-29.26,19.24-47.83,19.24Zm50.8-22.27l-5.02-40.42H28.96l-3.99,41.25c-11.82-12.39-19.07-29.18-19.07-47.66C5.9,36.84,36.84,5.9,75,5.9s69.1,30.94,69.1,69.1c0,18.07-6.93,34.53-18.3,46.83Z"/>
    <path d="m128.61,76.25H21.39c-4.08-.12-6.95-.84-2.52-10.44,4.45-9.61,38.56-51.38,56.13-51.85,17.58.47,51.7,42.24,56.13,51.85,4.44,9.6,1.56,10.32-2.52,10.44Z"/>
  </g>
</svg>