<?xml version="1.0" encoding="UTF-8"?>
<svg id="Layer_2" data-name="Layer 2" xmlns="http://www.w3.org/2000/svg" viewBox="0 0 150 150">
  <path d="m75,0C33.58,0,0,33.58,0,75s33.58,75,75,75,75-33.58,75-75S116.42,0,75,0Zm0,144.11c-21.8,0-41.24-10.1-53.9-25.88,4.87-1.92,10.54-3.61,16.84-5.01,3-.66,6.16-1.26,9.44-1.79,10.26-1.65,21.73-2.57,33.84-2.57,7.61,0,14.98.37,21.94,1.05,3.27.31,6.45.7,9.53,1.16,6.79.99,13.07,2.3,18.7,3.87-12.5,17.64-33.1,29.17-56.39,29.17Zm-32.34-51.84c0-1.24.07-2.98.19-5.04,5.12,4.72,18.11,15.23,32.39,15.23s27.23-10.95,31.88-15.53c.13,2.2.21,4.05.21,5.34,0,3.87-1.58,9.73-3.07,14.38h-.01c-7.31-.77-15.03-1.19-23.03-1.19-12.48,0-24.32,1.02-34.93,2.84-1.62-4.84-3.63-11.68-3.63-16.03Zm70.85,15.59c1.1-4.65,2.33-11.38,2.33-18.19,0-12.28-5.9-30.68-5.9-30.68,0,0,3.53.23,5.9,2.83,2.36,2.59,4.49,8.26,4.49,8.26,0,0,1.88-8.98-1.66-12.05s-6.14-3.77-6.14-3.77c0,0,8.03,0,13.46,4.25s11.8,7.08,11.8,7.08c0,0-4.24-13.68-11.32-15.58-7.1-1.89-15.59,0-15.59,0,0,0,3.07-4.48,8.86-4.48s15.22.94,15.22.94c0,0-6.85-8.26-15.22-8.26s-12.87,8.26-12.87,8.26c0,0-8.03-11.7-17.95-10.34-9.91,1.37-12.04,7.51-12.04,7.51,0,0,8.74-.71,12.75-.24,3.89.46,11.99,5.56,12.49,5.89-.46-.13-10-2.79-14.61-1.41-4.61,1.38-10.32,9.04-10.62,9.44.27-.11,5.63-2.34,13.69-1.4l8.26.94s-4.95,3.54-5.43,6.61.7,9.44.7,9.44c0,0,1.89-6.37,4.96-8.74,3.07-2.35,5.67-4.95,5.67-4.95,0,0,1.66,16.52,2.33,26.85-4.72,2.55-17.5,8.61-32.29,8.61s-26.85-5.72-31.87-8.39c.66-10.31,2.36-27.07,2.36-27.07,0,0,2.59,2.6,5.66,4.95,3.07,2.37,4.95,8.74,4.95,8.74,0,0,1.19-6.37.71-9.44-.47-3.07-5.42-6.61-5.42-6.61l8.26-.94c8.06-.94,13.41,1.29,13.68,1.4-.3-.4-6.01-8.06-10.61-9.44-4.61-1.38-14.15,1.28-14.62,1.41.5-.33,8.6-5.43,12.49-5.89,4.02-.47,12.75.24,12.75.24,0,0-2.13-6.14-12.04-7.51-9.91-1.36-17.94,10.34-17.94,10.34,0,0-4.49-8.26-12.87-8.26s-15.23,8.26-15.23,8.26c0,0,9.45-.94,15.23-.94s8.86,4.48,8.86,4.48c0,0-8.5-1.89-15.59,0-7.08,1.9-11.33,15.58-11.33,15.58,0,0,6.38-2.83,11.8-7.08,5.43-4.25,13.46-4.25,13.46-4.25,0,0-2.59.7-6.14,3.77-3.53,3.07-1.65,12.05-1.65,12.05,0,0,2.13-5.67,4.48-8.26,2.37-2.6,5.91-2.83,5.91-2.83,0,0-5.91,18.4-5.91,30.68,0,8.04,1.71,15.96,2.9,20.48-6.67,1.53-12.68,3.43-17.87,5.59-8.36-11.42-13.29-25.5-13.29-40.74C5.9,36.84,36.84,5.9,75,5.9s69.1,30.94,69.1,69.1c0,13.71-3.98,26.48-10.86,37.22-5.95-1.77-12.59-3.24-19.73-4.36Z"/>
</svg>